<svg xmlns="http://www.w3.org/2000/svg" viewBox="0 0 1280 1280"><defs><style>.cls-1{fill:#1f98a6;}.cls-2{opacity:0.4;}.cls-3,.cls-8{fill:#fff;}.cls-4{fill:#f2c879;}.cls-5{fill:#121d59;}.cls-10,.cls-6,.cls-7,.cls-9{fill:none;}.cls-6,.cls-8{stroke:#121d59;stroke-width:15px;}.cls-10,.cls-6,.cls-7{stroke-linecap:round;}.cls-10,.cls-6,.cls-7,.cls-8,.cls-9{stroke-miterlimit:10;}.cls-10,.cls-7,.cls-9{stroke:#d92929;}.cls-7,.cls-9{stroke-width:8px;}.cls-10{stroke-width:2px;}.cls-11{opacity:0.5;}</style></defs><g id="BG"><circle class="cls-1" cx="640" cy="640" r="640"/></g><g id="Shadow"><path class="cls-2" d="M947.25,332.75l-227.5-227.5H579.37L556.9,123.88l3.35,30.87,47.3,47.3h32.32v.46L858.68,421.32,676.36,603.64,317,244.32,246.32,315,605.65,674.35,321.8,958.2,643.58,1280C995.39,1278.05,1280,992.27,1280,640a640.44,640.44,0,0,0-25.58-179.7L1037.06,242.94Z"/></g><g id="Watch"><path class="cls-3" d="M640,1056.25c-111.18,0-215.71-43.3-294.33-121.92S223.75,751.18,223.75,640s43.3-215.71,121.92-294.33S528.82,223.75,640,223.75s215.71,43.3,294.33,121.92S1056.25,528.82,1056.25,640,1013,855.71,934.33,934.33,751.18,1056.25,640,1056.25Z"/><path class="cls-4" d="M640,965a325,325,0,1,1,229.81-95.19A322.88,322.88,0,0,1,640,965Z"/><path class="cls-5" d="M640,190c-248.53,0-450,201.47-450,450s201.47,450,450,450,450-201.47,450-450S888.53,190,640,190ZM918.42,918.42A393.73,393.73,0,1,1,1033.75,640,391.17,391.17,0,0,1,918.42,918.42Z"/><rect class="cls-5" x="217.54" y="235.53" width="100" height="60" rx="10" transform="translate(-109.4 266.95) rotate(-45)"/><rect class="cls-5" x="252.83" y="250.83" width="60" height="60" rx="10" transform="translate(-115.74 282.25) rotate(-45)"/><rect class="cls-5" x="280.34" y="245.65" width="30" height="95.36" transform="translate(-120.92 294.75) rotate(-45)"/><line class="cls-6" x1="642.75" y1="640" x2="808.21" y2="474.54"/><line class="cls-7" x1="459.29" y1="456.55" x2="713.52" y2="710.77"/><line class="cls-6" x1="642.75" y1="783" x2="642.75" y2="640"/><circle class="cls-8" cx="642.75" cy="640" r="52"/><path class="cls-9" d="M640,945.5A305.5,305.5,0,1,1,856,856,303.51,303.51,0,0,1,640,945.5Z"/><line class="cls-7" x1="640" y1="334.5" x2="640" y2="366.1"/><line class="cls-7" x1="640" y1="913.9" x2="640" y2="945.5"/><line class="cls-7" x1="945.5" y1="640" x2="913.9" y2="640"/><line class="cls-7" x1="366.1" y1="640" x2="334.5" y2="640"/><line class="cls-7" x1="375.43" y1="792.75" x2="402.8" y2="776.95"/><line class="cls-7" x1="877.2" y1="503.05" x2="904.57" y2="487.25"/><line class="cls-7" x1="487.25" y1="904.57" x2="503.05" y2="877.2"/><line class="cls-7" x1="776.95" y1="402.8" x2="792.75" y2="375.43"/><line class="cls-7" x1="487.25" y1="375.43" x2="503.05" y2="402.8"/><line class="cls-7" x1="776.95" y1="877.2" x2="792.75" y2="904.57"/><line class="cls-7" x1="375.43" y1="487.25" x2="402.8" y2="503.05"/><line class="cls-7" x1="877.2" y1="776.95" x2="904.57" y2="792.75"/><line class="cls-10" x1="666.63" y1="335.66" x2="665.25" y2="351.4"/><line class="cls-10" x1="614.75" y1="928.6" x2="613.37" y2="944.34"/><line class="cls-10" x1="693.05" y1="339.14" x2="690.31" y2="354.7"/><line class="cls-10" x1="589.69" y1="925.3" x2="586.95" y2="940.86"/><line class="cls-10" x1="719.07" y1="344.91" x2="714.98" y2="360.17"/><line class="cls-10" x1="565.02" y1="919.83" x2="560.93" y2="935.09"/><line class="cls-10" x1="744.49" y1="352.92" x2="739.08" y2="367.77"/><line class="cls-10" x1="540.92" y1="912.23" x2="535.51" y2="927.08"/><line class="cls-10" x1="769.11" y1="363.12" x2="762.43" y2="377.44"/><line class="cls-10" x1="517.57" y1="902.56" x2="510.89" y2="916.88"/><line class="cls-10" x1="815.23" y1="389.75" x2="806.16" y2="402.69"/><line class="cls-10" x1="473.84" y1="877.31" x2="464.77" y2="890.25"/><line class="cls-10" x1="836.37" y1="405.97" x2="826.22" y2="418.08"/><line class="cls-10" x1="453.78" y1="861.92" x2="443.63" y2="874.03"/><line class="cls-10" x1="856.02" y1="423.98" x2="844.85" y2="435.15"/><line class="cls-10" x1="435.15" y1="844.85" x2="423.98" y2="856.02"/><line class="cls-10" x1="874.03" y1="443.63" x2="861.92" y2="453.79"/><line class="cls-10" x1="418.08" y1="826.21" x2="405.97" y2="836.37"/><line class="cls-10" x1="890.25" y1="464.77" x2="877.31" y2="473.84"/><line class="cls-10" x1="402.69" y1="806.16" x2="389.75" y2="815.23"/><line class="cls-10" x1="916.88" y1="510.89" x2="902.56" y2="517.57"/><line class="cls-10" x1="377.44" y1="762.43" x2="363.12" y2="769.11"/><line class="cls-10" x1="927.08" y1="535.51" x2="912.23" y2="540.92"/><line class="cls-10" x1="367.77" y1="739.08" x2="352.92" y2="744.49"/><line class="cls-10" x1="935.09" y1="560.93" x2="919.83" y2="565.02"/><line class="cls-10" x1="360.17" y1="714.98" x2="344.91" y2="719.07"/><line class="cls-10" x1="940.86" y1="586.95" x2="925.3" y2="589.7"/><line class="cls-10" x1="354.7" y1="690.3" x2="339.14" y2="693.05"/><line class="cls-10" x1="944.34" y1="613.38" x2="928.6" y2="614.75"/><line class="cls-10" x1="351.4" y1="665.25" x2="335.66" y2="666.62"/><line class="cls-10" x1="944.34" y1="666.63" x2="928.6" y2="665.25"/><line class="cls-10" x1="351.4" y1="614.75" x2="335.66" y2="613.37"/><line class="cls-10" x1="940.86" y1="693.05" x2="925.3" y2="690.31"/><line class="cls-10" x1="354.7" y1="589.69" x2="339.14" y2="586.95"/><line class="cls-10" x1="935.09" y1="719.07" x2="919.83" y2="714.98"/><line class="cls-10" x1="360.17" y1="565.02" x2="344.91" y2="560.93"/><line class="cls-10" x1="927.08" y1="744.49" x2="912.23" y2="739.08"/><line class="cls-10" x1="367.77" y1="540.92" x2="352.92" y2="535.51"/><line class="cls-10" x1="916.88" y1="769.11" x2="902.56" y2="762.43"/><line class="cls-10" x1="377.44" y1="517.57" x2="363.12" y2="510.89"/><line class="cls-10" x1="389.75" y1="464.77" x2="402.69" y2="473.84"/><line class="cls-10" x1="877.31" y1="806.16" x2="890.25" y2="815.23"/><line class="cls-10" x1="405.97" y1="443.63" x2="418.08" y2="453.78"/><line class="cls-10" x1="861.92" y1="826.22" x2="874.03" y2="836.37"/><line class="cls-10" x1="423.98" y1="423.98" x2="435.15" y2="435.15"/><line class="cls-10" x1="844.85" y1="844.85" x2="856.02" y2="856.02"/><line class="cls-10" x1="443.63" y1="405.97" x2="453.79" y2="418.08"/><line class="cls-10" x1="826.21" y1="861.92" x2="836.37" y2="874.03"/><line class="cls-10" x1="464.77" y1="389.75" x2="473.84" y2="402.69"/><line class="cls-10" x1="806.16" y1="877.31" x2="815.23" y2="890.25"/><line class="cls-10" x1="510.89" y1="363.12" x2="517.57" y2="377.44"/><line class="cls-10" x1="762.43" y1="902.56" x2="769.11" y2="916.88"/><line class="cls-10" x1="535.51" y1="352.92" x2="540.92" y2="367.77"/><line class="cls-10" x1="739.08" y1="912.23" x2="744.49" y2="927.08"/><line class="cls-10" x1="560.93" y1="344.91" x2="565.02" y2="360.17"/><line class="cls-10" x1="714.98" y1="919.83" x2="719.07" y2="935.09"/><line class="cls-10" x1="586.95" y1="339.14" x2="589.7" y2="354.7"/><line class="cls-10" x1="690.3" y1="925.3" x2="693.05" y2="940.86"/><line class="cls-10" x1="613.38" y1="335.66" x2="614.75" y2="351.4"/><line class="cls-10" x1="665.25" y1="928.6" x2="666.62" y2="944.34"/><rect class="cls-5" x="966.85" y="235.16" width="100" height="60" rx="10" transform="translate(485.32 -641.36) rotate(45)"/><rect class="cls-5" x="971.55" y="250.46" width="60" height="60" rx="10" transform="translate(491.66 -626.06) rotate(45)"/><rect class="cls-5" x="974.05" y="245.28" width="30" height="95.36" transform="translate(496.84 -613.56) rotate(45)"/><path class="cls-5" d="M695,95H585a35,35,0,0,0-35,35h0a35,35,0,0,0,35,35H695a35,35,0,0,0,35-35h0A35,35,0,0,0,695,95Zm0,55H585a20,20,0,0,1,0-40H695a20,20,0,0,1,0,40Z"/><rect class="cls-5" x="632.5" y="160" width="15" height="45.86"/><path class="cls-11" d="M361.58,918.42q2.51,2.51,5.05,5C295.4,849.61,256.25,752.81,256.25,650A393.76,393.76,0,0,1,650,256.25c102.81,0,199.61,39.15,273.37,110.38q-2.45-2.55-5-5.05A393.75,393.75,0,1,0,361.58,918.42Z"/></g></svg>